<?xml version="1.0" encoding="UTF-8" standalone="no"?>
<svg
   version="1.1"
   id="svg2"
   viewBox="0 0 3169.9501 601.19286"
   height="16.966999cm"
   width="89.462997cm"
   inkscape:version="1.2.2 (b0a8486541, 2022-12-01)"
   sodipodi:docname="logo_paths.svg"
   inkscape:export-filename="logo.png"
   inkscape:export-xdpi="96"
   inkscape:export-ydpi="96"
   xmlns:inkscape="http://www.inkscape.org/namespaces/inkscape"
   xmlns:sodipodi="http://sodipodi.sourceforge.net/DTD/sodipodi-0.dtd"
   xmlns:xlink="http://www.w3.org/1999/xlink"
   xmlns="http://www.w3.org/2000/svg"
   xmlns:svg="http://www.w3.org/2000/svg"
   xmlns:rdf="http://www.w3.org/1999/02/22-rdf-syntax-ns#"
   xmlns:cc="http://creativecommons.org/ns#"
   xmlns:dc="http://purl.org/dc/elements/1.1/">
  <sodipodi:namedview
     pagecolor="#ffffff"
     bordercolor="#666666"
     borderopacity="1"
     objecttolerance="10"
     gridtolerance="10"
     guidetolerance="10"
     inkscape:pageopacity="0"
     inkscape:pageshadow="2"
     inkscape:window-width="1920"
     inkscape:window-height="1011"
     id="namedview40"
     showgrid="false"
     fit-margin-top="1.5"
     fit-margin-left="1.5"
     fit-margin-right="1.5"
     fit-margin-bottom="1.5"
     inkscape:zoom="0.36388287"
     inkscape:cx="1621.4009"
     inkscape:cy="410.84649"
     inkscape:window-x="0"
     inkscape:window-y="32"
     inkscape:window-maximized="1"
     inkscape:current-layer="text3339"
     inkscape:pagecheckerboard="0"
     inkscape:document-units="cm"
     inkscape:showpageshadow="0"
     inkscape:deskcolor="#d1d1d1" />
  <defs
     id="defs4">
    <linearGradient
       inkscape:collect="always"
       id="linearGradient60818">
      <stop
         style="stop-color:#ffcc00;stop-opacity:1;"
         offset="0"
         id="stop60814" />
      <stop
         style="stop-color:#ffcc00;stop-opacity:0;"
         offset="1"
         id="stop60816" />
    </linearGradient>
    <linearGradient
       inkscape:collect="always"
       id="linearGradient57616">
      <stop
         style="stop-color:#ce5027;stop-opacity:1;"
         offset="0"
         id="stop57612" />
      <stop
         style="stop-color:#ce5027;stop-opacity:0;"
         offset="1"
         id="stop57614" />
    </linearGradient>
    <linearGradient
       inkscape:collect="always"
       id="linearGradient55606">
      <stop
         style="stop-color:#004082;stop-opacity:1;"
         offset="0"
         id="stop55602" />
      <stop
         style="stop-color:#004082;stop-opacity:0;"
         offset="1"
         id="stop55604" />
    </linearGradient>
    <rect
       x="222.60136"
       y="77.493637"
       width="3360.3381"
       height="849.75836"
       id="rect3341" />
    <linearGradient
       id="linearGradient5816"
       inkscape:swatch="solid">
      <stop
         id="stop5818"
         offset="0"
         style="stop-color:#0066cd;stop-opacity:1;" />
    </linearGradient>
    <linearGradient
       id="linearGradient5810"
       inkscape:swatch="solid">
      <stop
         id="stop5812"
         offset="0"
         style="stop-color:#0066cd;stop-opacity:1;" />
    </linearGradient>
    <linearGradient
       id="linearGradient5800-2"
       inkscape:swatch="solid">
      <stop
         style="stop-color:#004082;stop-opacity:0;"
         offset="0"
         id="stop5808" />
    </linearGradient>
    <linearGradient
       id="linearGradient5800">
      <stop
         id="stop5802"
         offset="0"
         style="stop-color:#004082;stop-opacity:0;" />
    </linearGradient>
    <linearGradient
       id="azul-8"
       inkscape:swatch="solid">
      <stop
         id="stop5796"
         offset="0"
         style="stop-color:#004082;stop-opacity:0;" />
    </linearGradient>
    <linearGradient
       id="linearGradient5788"
       inkscape:swatch="solid">
      <stop
         id="stop5790"
         offset="0"
         style="stop-color:#0066cd;stop-opacity:0;" />
    </linearGradient>
    <radialGradient
       inkscape:collect="always"
       xlink:href="#linearGradient55606"
       id="radialGradient55610"
       cx="70.203407"
       cy="751.98877"
       fx="70.203407"
       fy="751.98877"
       r="52.525475"
       gradientUnits="userSpaceOnUse"
       gradientTransform="matrix(1.4001391,0,0,1.4001391,2187.6466,-484.46167)" />
    <radialGradient
       inkscape:collect="always"
       xlink:href="#linearGradient57616"
       id="radialGradient57620"
       cx="1150.0629"
       cy="452.91687"
       fx="1150.0629"
       fy="452.91687"
       r="53.149605"
       gradientUnits="userSpaceOnUse"
       gradientTransform="matrix(1.4024753,0,0,1.4024753,-637.9825,-160.64864)" />
    <radialGradient
       inkscape:collect="always"
       xlink:href="#linearGradient60818"
       id="radialGradient60820"
       cx="2447.1047"
       cy="440.59293"
       fx="2447.1047"
       fy="440.59293"
       r="52.525475"
       gradientUnits="userSpaceOnUse"
       gradientTransform="matrix(1.4028729,0,0,1.4028729,-2147.272,186.19692)" />
  </defs>
  <metadata
     id="metadata7">
    <rdf:RDF>
      <cc:Work
         rdf:about="">
        <dc:format>image/svg+xml</dc:format>
        <dc:type
           rdf:resource="http://purl.org/dc/dcmitype/StillImage" />
      </cc:Work>
    </rdf:RDF>
  </metadata>
  <g
     transform="translate(-113.87722,-381.27618)"
     id="layer1">
    <g
       id="g70941">
      <g
         id="g71262">
        <circle
           r="73.66568"
           cy="474.55609"
           cx="974.95239"
           id="path4164-6-7-5-3-0"
           style="fill:url(#radialGradient57620);fill-opacity:1;stroke:none;stroke-width:1.73929;stroke-linejoin:miter;stroke-miterlimit:4;stroke-dasharray:none;stroke-opacity:1" />
        <circle
           r="73.686562"
           cy="804.29272"
           cx="1285.7051"
           id="path4164-6-7-5-3-7"
           style="fill:url(#radialGradient60820);fill-opacity:1;stroke:none;stroke-width:1.75115;stroke-linejoin:miter;stroke-miterlimit:4;stroke-dasharray:none;stroke-opacity:1" />
        <ellipse
           cy="568.42719"
           cx="2285.9412"
           id="path4164-6-7-5-5-92"
           style="fill:url(#radialGradient55610);fill-opacity:1;stroke:none;stroke-width:1.74774;stroke-linejoin:miter;stroke-miterlimit:4;stroke-dasharray:none;stroke-opacity:1"
           rx="73.523842"
           ry="73.542969" />
        <g
           aria-label="PyUnitWizard"
           transform="matrix(0.93749996,0,0,0.93749996,-82.92985,294.55905)"
           id="text3339"
           style="font-size:529.134px;line-height:125%;letter-spacing:0px;word-spacing:0px;white-space:pre;shape-inside:url(#rect3341);display:inline;stroke-width:1px">
          <path
             d="m 373.93388,181.13835 q 74.07875,0 107.94333,29.10237 33.86457,29.10237 33.86457,82.01577 0,31.2189 -14.28661,58.73387 -13.75749,26.98583 -47.09293,43.91812 -32.8063,16.93229 -89.42364,16.93229 H 321.54962 V 558.94001 H 273.92756 V 181.13835 Z m -4.23307,40.74332 h -48.15119 v 149.21578 h 38.09764 q 53.97167,0 80.42837,-17.46142 26.45669,-17.46142 26.45669,-59.26301 0,-36.51024 -23.28189,-54.50079 -23.2819,-17.99056 -73.54962,-17.99056 z"
             id="path388" />
          <path
             d="m 543.25652,275.3242 h 49.73859 l 61.37954,161.38586 q 7.93701,21.16536 14.28662,40.74332 6.34961,19.04882 9.52441,36.51024 h 2.11654 q 3.1748,-13.22835 10.05354,-34.39371 6.87875,-21.69449 14.28662,-43.38898 l 57.6756,-160.85673 h 50.26773 L 690.35576,598.09592 q -14.81575,40.21419 -38.62678,64.02522 -23.28189,23.81102 -64.55434,23.81102 -12.69922,0 -22.22363,-1.5874 -9.52441,-1.05827 -16.40315,-2.64567 v -37.03938 q 5.82047,1.05827 13.75748,2.11654 8.46615,1.05827 17.46142,1.05827 24.34017,0 39.15592,-13.75749 15.34488,-13.75748 23.81103,-36.51024 l 14.81575,-37.56851 z"
             id="path390" />
          <path
             d="m 1151.2316,425.59825 q 0,39.15591 -15.8741,70.90395 -15.874,31.21891 -48.6803,49.7386 -32.2772,17.99055 -82.5449,17.99055 -70.3748,0 -107.41418,-38.09765 -36.51025,-38.62678 -36.51025,-101.59372 V 181.13835 h 47.62206 v 244.98903 q 0,46.03466 24.34016,71.43309 24.8693,25.39843 74.60791,25.39843 51.326,0 74.0787,-26.98583 23.2819,-27.51497 23.2819,-70.37482 v -244.4599 h 47.093 z"
             id="path392" />
          <path
             d="m 1380.8763,270.03286 q 50.7968,0 76.7244,24.8693 25.9275,24.34016 25.9275,79.37009 v 184.66776 h -46.0346 V 377.44706 q 0,-68.25828 -63.4961,-68.25828 -47.0929,0 -65.0835,26.45669 -17.9905,26.4567 -17.9905,76.1953 v 147.09924 h -46.5638 V 275.3242 h 37.5685 l 6.8787,38.62678 h 2.6457 q 13.7575,-22.22363 38.0977,-32.8063 24.3401,-11.11182 51.326,-11.11182 z"
             id="path394" />
          <path
             d="m 1595.1755,168.96827 q 10.5827,0 18.5197,7.40788 8.4661,6.87874 8.4661,22.22363 0,14.81575 -8.4661,22.22362 -7.937,7.40788 -18.5197,7.40788 -11.641,0 -19.578,-7.40788 -7.937,-7.40787 -7.937,-22.22362 0,-15.34489 7.937,-22.22363 7.937,-7.40788 19.578,-7.40788 z m 22.7527,106.35593 v 283.61581 h -46.5638 V 275.3242 Z"
             id="path396" />
          <path
             d="m 1802.5957,526.1337 q 10.5826,0 21.6945,-1.5874 11.1118,-2.11653 17.9905,-4.23307 v 35.45198 q -7.4079,3.70393 -21.1653,5.82047 -13.7575,2.64567 -26.4567,2.64567 -22.2237,0 -41.2725,-7.40788 -18.5197,-7.937 -30.1606,-26.98583 -11.641,-19.04882 -11.641,-53.44253 v -165.0898 h -40.2142 v -22.22363 l 40.7434,-18.51968 18.5196,-60.32128 h 27.515 v 65.08348 h 82.0158 v 35.98111 h -82.0158 v 164.03153 q 0,25.92757 12.1701,38.62678 12.6992,12.17008 32.2772,12.17008 z"
             id="path398" />
          <path
             d="m 2339.1376,181.13835 -100.5354,377.80166 h -48.1512 l -73.5497,-247.6347 q -4.233,-15.34488 -8.4661,-30.68977 -4.2331,-15.34488 -6.8787,-26.98583 -2.6457,-12.17008 -3.704,-16.93229 -0.5291,6.87874 -5.8205,29.6315 -4.7622,22.22363 -12.17,46.56379 l -71.4331,246.0473 h -48.1512 L 1860.2714,181.13835 h 49.7386 l 58.7338,230.70242 q 6.3496,24.34016 10.5827,47.09292 4.7622,22.75276 7.4079,42.85985 2.6456,-20.63622 7.937,-44.97639 5.2913,-24.34016 12.1701,-47.62205 l 66.6709,-228.05675 h 49.2094 l 69.3166,229.64415 q 7.4078,24.34016 12.6992,48.68032 5.2913,23.81103 7.937,42.33072 2.6457,-19.57796 7.4079,-42.33072 4.7622,-23.28189 11.1118,-48.15119 l 58.2047,-230.17328 z"
             id="path400" />
          <path
             d="m 2414.804,168.96827 q 10.5827,0 18.5197,7.40788 8.4662,6.87874 8.4662,22.22363 0,14.81575 -8.4662,22.22362 -7.937,7.40788 -18.5197,7.40788 -11.6409,0 -19.5779,-7.40788 -7.937,-7.40787 -7.937,-22.22362 0,-15.34489 7.937,-22.22363 7.937,-7.40788 19.5779,-7.40788 z m 22.7528,106.35593 V 558.94001 H 2390.993 V 275.3242 Z"
             id="path402" />
          <path
             d="M 2710.5895,558.94001 H 2503.1689 V 528.25024 L 2655.5595,311.30531 H 2512.1642 V 275.3242 h 194.7213 v 34.92284 l -150.274,212.71186 h 153.978 z"
             id="path404" />
          <path
             d="m 2883.6159,270.562 q 51.8552,0 76.7245,22.75276 24.8692,22.75276 24.8692,72.49135 v 193.1339 h -33.8645 l -8.9953,-40.21418 h -2.1165 q -18.5197,23.28189 -39.156,34.39371 -20.107,11.11181 -56.0882,11.11181 -38.6267,0 -64.0252,-20.10709 -25.3984,-20.63623 -25.3984,-64.02521 0,-42.33072 33.3354,-65.08348 33.3355,-23.28189 102.652,-25.39843 l 48.1512,-1.5874 v -16.93229 q 0,-35.45198 -15.3449,-49.20946 -15.3448,-13.75748 -43.3889,-13.75748 -22.2237,0 -42.3308,6.87874 -20.1071,6.34961 -37.5685,14.81575 l -14.2866,-34.92284 q 18.5197,-10.05355 43.9181,-16.93229 25.3985,-7.40787 52.9134,-7.40787 z m 13.7575,151.33231 q -52.9134,2.11654 -73.5496,16.93229 -20.1071,14.81575 -20.1071,41.80158 0,23.81103 14.2866,34.92284 14.8158,11.11182 37.5685,11.11182 35.9811,0 59.7922,-19.57796 23.811,-20.10709 23.811,-61.37954 v -25.39843 z"
             id="path406" />
          <path
             d="m 3205.3297,270.03286 q 7.937,0 16.9323,1.05827 9.5244,0.52913 16.4031,2.11654 l -5.8204,42.85985 q -6.8788,-1.5874 -15.3449,-2.64567 -7.937,-1.05827 -15.3449,-1.05827 -21.6945,0 -40.7433,12.17008 -19.0488,11.64095 -30.6898,33.33544 -11.1118,21.16536 -11.1118,49.73859 v 151.33232 h -46.5638 V 275.3242 h 38.0977 l 5.2913,51.85513 h 2.1165 q 13.7575,-23.28189 35.452,-40.21418 21.6945,-16.93229 51.326,-16.93229 z"
             id="path408" />
          <path
             d="m 3381.5314,564.23135 q -52.9134,0 -84.6615,-36.51024 -31.748,-37.03938 -31.748,-110.05987 0,-73.02049 31.748,-110.05987 32.2772,-37.56851 85.1906,-37.56851 32.8063,0 53.4425,12.17008 21.1654,12.17008 34.3937,29.63151 h 3.1749 q -0.5292,-6.87875 -2.1166,-20.1071 -1.0583,-13.75748 -1.0583,-21.69449 V 156.79819 h 46.5638 v 402.14182 h -37.5685 l -6.8787,-38.09765 h -2.1166 q -12.6992,17.99056 -33.8645,30.68978 -21.1654,12.69921 -54.5008,12.69921 z m 7.4078,-38.62678 q 44.9764,0 62.967,-24.34016 18.5197,-24.8693 18.5197,-74.60789 v -8.46615 q 0,-52.91339 -17.4614,-80.95749 -17.4615,-28.57324 -64.5544,-28.57324 -37.5685,0 -56.6173,30.16064 -18.5197,29.6315 -18.5197,79.89923 0,50.79686 18.5197,78.84096 19.0488,28.0441 57.1464,28.0441 z"
             id="path410" />
        </g>
      </g>
    </g>
  </g>
</svg>
